<svg id="Layer_3" enable-background="new 0 0 64 64" height="512" viewBox="-15 -10 88 88" width="512" xmlns="http://www.w3.org/2000/svg"><path d="m20 17h-4-4c-6.065 0-11 4.935-11 11v24c0 6.065 4.935 11 11 11h4 4c.553 0 1-.448 1-1v-14c0-.552-.447-1-1-1h-4c-.111 0-.213.03-.312.063l-.004-.012-4.684 1.562v-17.226l4.684 1.562.004-.012c.099.033.201.063.312.063h4c.553 0 1-.448 1-1v-14c0-.552-.447-1-1-1zm-3 32h2v12h-2zm-6.684-19.949c-.304-.101-.64-.051-.901.138-.261.188-.415.49-.415.811v20c0 .321.154.623.415.811.173.125.378.189.585.189.106 0 .213-.017.316-.051l4.684-1.561v11.612h-3c-4.963 0-9-4.038-9-9v-24c0-4.962 4.037-9 9-9h3v11.612zm8.684 1.949h-2v-12h2z" style="fill:#fff"/><path d="m43 1c-11.028 0-20 8.972-20 20 0 4.013 1.19 7.872 3.448 11.197l-3.358 7.389c-.173.379-.092.826.203 1.121.191.192.447.293.707.293.14 0 .281-.029.414-.09l7.39-3.358c3.326 2.258 7.184 3.448 11.196 3.448 11.028 0 20-8.972 20-20s-8.972-20-20-20zm0 38c-3.784 0-7.417-1.178-10.506-3.406-.173-.125-.379-.189-.585-.189-.141 0-.281.03-.414.09l-5.481 2.491 2.491-5.481c.148-.327.11-.708-.1-.999-2.227-3.089-3.405-6.721-3.405-10.506 0-9.925 8.075-18 18-18s18 8.075 18 18-8.075 18-18 18z" style="fill:#fff"/><path d="m43 7v-2c-8.822 0-16 7.178-16 16h2c0-7.72 6.28-14 14-14z" style="fill:#fff"/><path d="m57 21c0 7.72-6.28 14-14 14v2c8.822 0 16-7.178 16-16z" style="fill:#fff"/><path d="m47 32v-7h7c.553 0 1-.448 1-1v-6c0-.552-.447-1-1-1h-7v-7c0-.552-.447-1-1-1h-6c-.553 0-1 .448-1 1v7h-7c-.553 0-1 .448-1 1v6c0 .552.447 1 1 1h7v7c0 .552.447 1 1 1h6c.553 0 1-.448 1-1zm-2-8v7h-4v-7c0-.552-.447-1-1-1h-7v-4h7c.553 0 1-.448 1-1v-7h4v7c0 .552.447 1 1 1h7v4h-7c-.553 0-1 .448-1 1z" style="fill:#fff"/></svg>