<svg id="Capa_1" enable-background="new 0 0 480 480" height="512" viewBox="-60 -70 650 650" width="512" xmlns="http://www.w3.org/2000/svg"><circle cx="273.993" cy="136" r="10" style="fill:#fff"/><circle cx="333.993" cy="136" r="10" style="fill:#fff"/><circle cx="351.993" cy="344" r="8" style="fill:#fff"/><path d="m412.725 270.4 7.384-17.488c7.875-18.602 3.653-40.124-10.666-54.372-6.316-6.31-9.863-14.872-9.86-23.8l.41-78.74c0-53.019-42.981-96-96-96s-96 42.981-96 96v78.74c-.026 8.921-3.568 17.473-9.857 23.8-14.279 14.268-18.496 35.762-10.668 54.368l3.674 8.738c-12.781 8.325-22.772 20.292-28.682 34.354h-21.977c-7.392-.023-14.377 3.383-18.909 9.223-.57.728-1.098 1.488-1.581 2.277-2.379 3.87-3.599 8.341-3.517 12.883.034 1.835.276 3.661.722 5.442l1.03 4.12 3.939 15.754c4.43 17.819 20.439 30.321 38.8 30.3h10.887l-7.2 16.806c-.615 1.439-1.267 2.874-1.934 4.305-1.519-.813-3.12-1.461-4.776-1.934l-1.323-.374c-6.124-1.748-12.692-.974-18.242 2.15-10.547 5.93-18.93 15.066-23.934 26.083l-3.853 8.533c-4.436 9.82-2.833 21.315 4.12 29.546-1.541 2.159-3.024 4.345-4.451 6.558-2.39 3.716-1.316 8.666 2.4 11.056 1.292.831 2.796 1.273 4.332 1.272h275c22.081-.025 39.975-17.919 40-40v-127.34c.002-16.213-7.027-31.63-19.268-42.26zm3.268 42.26v31.34h-29.451c-.867-1.149-1.766-2.275-2.726-3.354-1.419-13.27-10.907-24.275-23.823-27.633v-43.57l14.684 2.448h.008l7.884 1.319c19.292 3.202 33.434 19.894 33.424 39.45zm-46.183 90.264c-.035.043-.066.09-.1.134-.127.162-.252.324-.367.5-.028.043-.051.088-.079.131-.114.177-.224.356-.324.542-.017.031-.03.065-.047.1-.1.2-.2.4-.289.611-.009.021-.015.044-.024.065-.089.219-.17.442-.24.67-.007.024-.011.049-.018.072-.066.225-.126.452-.172.685-.013.063-.018.129-.03.192-.033.193-.067.386-.087.583-.026.264-.04.531-.04.8v8h-52.686l-8.967-8.967c-.737-.731-1.521-1.413-2.347-2.042v-86.45c.002-8.075-1.385-16.09-4.1-23.695 3.508 2.115 8.048 1.227 10.5-2.055l21.163-28.217c.592.174 1.193.313 1.8.418l10.637 1.773v46.239c-17.114 4.41-27.413 21.859-23.003 38.973s21.859 27.413 38.973 23.003c7.557-1.947 14.141-6.588 18.515-13.051 5.668 13.877 2.46 29.8-8.139 40.4-.186.188-.362.383-.529.586zm-129.833-274.924h.016v32c-8.837.004-16.004-7.155-16.008-15.992s7.155-16.004 15.992-16.008zm144.016 16c-.01 8.832-7.168 15.99-16 16v-32c8.832.01 15.99 7.168 16 16zm-32 16h-51.056l10.211-20.422c2.007-3.936.443-8.754-3.493-10.761s-8.754-.443-10.761 3.493c-.019.037-.037.074-.056.112l-13.789 27.578h-27.056v-38.784c11.216-7.034 19.909-17.446 24.828-29.737l1.285-3.213c17.743 21.038 42.631 34.78 69.887 38.588zm-64.041 16h.035.028 63.978c0 26.51-21.49 48-48 48s-48-21.49-48-48zm16.041 64c5.397.003 10.774-.677 16-2.025v11.245c.004 1.2.142 2.396.411 3.565l-16.411 21.882-16.467-21.956c.305-1.234.462-2.5.467-3.771v-10.965c5.226 1.348 10.603 2.028 16 2.025zm-16 102.7c0 8.837-7.163 16-16 16s-16-7.163-16-16v-30.7h20.687l11.313 11.313zm80 1.3c0 8.837-7.163 16-16 16s-16-7.163-16-16 7.163-16 16-16c8.833.01 15.99 7.168 16 16zm37.37-97.3-6.306 14.935c-4.416-1.998-9.073-3.411-13.854-4.205l-7.888-1.319h-.006l-41.316-6.891v-17.83c19.787-11.43 31.983-32.539 32-55.39 5.46.005 10.829-1.397 15.59-4.069v2.809c-.002 13.173 5.233 25.807 14.553 35.117 9.701 9.656 12.561 24.238 7.227 36.843zm-101.37-230.7c44.179.009 79.991 35.821 80 80v20.305c-4.859-2.824-10.38-4.309-16-4.305-2.5 0-4.981-.1-7.39-.287-29.641-2.175-56.603-17.958-73.01-42.74l-.94-1.41c-2.451-3.676-7.417-4.67-11.094-2.22-1.347.898-2.39 2.183-2.991 3.687l-6.6 16.51c-4.933 12.36-14.932 22.01-27.46 26.5-5.111.232-10.091 1.695-14.515 4.265v-20.305c.05-44.162 35.838-79.95 80-80zm-94.543 193.857c9.343-9.294 14.58-21.939 14.543-35.117v-3.04c4.86 2.822 10.38 4.306 16 4.3.018 22.851 12.213 43.96 32 55.39v17.551l-17.894 2.235c-1.514-.47-3.059-.913-4.649-1.29-14.785-3.495-30.303-2.108-44.234 3.953l-3-7.129c-5.309-12.612-2.449-27.183 7.232-36.853zm-68.967 102.143h3.51v1.669c-.004 3.495-2.836 6.327-6.331 6.331h-5.169c0-.049 0-.1.006-.146.006-.335.033-.669.081-1 .014-.1.027-.2.045-.3.067-.381.163-.757.285-1.125.013-.039.032-.076.045-.115.121-.333.264-.658.428-.973.047-.092.096-.183.147-.273.194-.349.414-.683.657-1 1.51-1.942 3.836-3.075 6.296-3.068zm59.51 64c2.122 0 4.157-.843 5.657-2.343l16-16c3.124-3.124 3.124-8.19 0-11.314s-8.19-3.124-11.314 0l-13.656 13.657h-35.707c-11.017.013-20.623-7.489-23.28-18.181l-1.454-5.819h1.423c12.327-.014 22.317-10.004 22.331-22.331v-1.669h8c3.443 0 6.5-2.203 7.589-5.47 4.552-13.672 13.845-25.264 26.2-32.681l3.518-2.1c12.149-7.291 26.665-9.549 40.455-6.294 1.738.412 3.419.897 5.042 1.454 2.297.778 4.539 1.71 6.711 2.789l.425.218c3.63 1.814 7.043 4.032 10.174 6.613.083.069.168.137.254.2 6.533 5.417 11.702 12.291 15.092 20.071-1.079-.523-2.261-.796-3.46-.8h-32c-4.418 0-8 3.582-8 8v38.7c-.051 17.637 14.205 31.975 31.842 32.026 5.676.016 11.253-1.48 16.158-4.336v29.61c-10.175-.003-19.248 6.408-22.642 16h-1.358c-17.66-.013-31.987 14.292-32 31.952-.004 5.635 1.481 11.171 4.305 16.048h-40.648c5.982-10.303 5.75-23.074-.6-33.153 5.058-9.024 9.255-18.504 12.535-28.315 1.398-4.191-.866-8.723-5.057-10.121s-8.723.866-10.121 5.057c-2.548 7.624-5.711 15.029-9.457 22.142-1.991-1.055-4.089-1.896-6.257-2.51l-1.308-.37c-.141-2.192-.584-4.353-1.319-6.423 1.916-3.685 3.694-7.441 5.3-11.207l9.9-23.1zm-74.816 62.153 3.853-8.533c3.588-7.898 9.6-14.448 17.162-18.7 1.85-1.04 4.039-1.298 6.08-.717l1.322.374c4.249 1.205 6.72 5.623 5.523 9.874-1.202 4.251 1.271 8.672 5.522 9.874l7.7 2.176c8.489 2.455 13.38 11.327 10.925 19.815-2.434 8.414-11.181 13.308-19.625 10.979l-30.8-8.7c-6.357-1.79-10.06-8.396-8.269-14.753.162-.575.367-1.137.612-1.681zm290.816 1.847c-.015 13.248-10.752 23.985-24 24h-128c-8.837 0-16-7.163-16-16s7.163-16 16-16h8c4.418 0 8-3.582 8-8-.01-4.408 3.554-7.99 7.962-8h.038 1.37c2.121.016 4.152.858 5.663 2.347l11.31 11.31c1.5 1.5 3.535 2.343 5.657 2.343h64c4.418 0 8-3.582 8-8v-12.838c12.292-13.996 16.386-33.392 10.8-51.162h21.2z" style="fill:#fff"/><path d="m152.093 228.079c-3.764-15.047-19.012-24.194-34.059-20.43-4.935 1.234-9.443 3.786-13.041 7.383l-4.46 4.46-4.461-4.46c-10.968-10.966-28.749-10.965-39.715.003-3.598 3.598-6.15 8.106-7.385 13.043-3.317 13.345 2.091 27.337 13.521 34.983l33.6 22.4c2.687 1.791 6.188 1.791 8.875 0l33.6-22.4c11.431-7.644 16.841-21.636 13.525-34.982zm-22.4 21.669-29.165 19.443-29.162-19.443c-5.813-3.888-8.564-11.003-6.877-17.79 1.62-6.475 8.182-10.41 14.657-8.79 2.124.531 4.063 1.63 5.611 3.177l10.117 10.118c3.124 3.124 8.189 3.124 11.314 0l10.117-10.118c4.719-4.719 12.37-4.719 17.089 0 1.549 1.549 2.647 3.489 3.179 5.614 1.685 6.787-1.067 13.902-6.88 17.789z" style="fill:#fff"/><circle cx="207.993" cy="312" r="8" style="fill:#fff"/></svg>